<svg width="31" height="30" viewBox="0 0 31 30" fill="none" xmlns="http://www.w3.org/2000/svg">
<path fill-rule="evenodd" clip-rule="evenodd" d="M24.2083 13.5416H25.6667C28.0829 13.5416 30.0417 15.5004 30.0417 17.9166C30.0417 20.3329 28.0829 22.2916 25.6667 22.2916H24.2083V26.6666C24.2083 28.2775 22.9025 29.5833 21.2917 29.5833H3.79167C2.18084 29.5833 0.875 28.2775 0.875 26.6666V22.2916H3.79167C6.20791 22.2916 8.16667 20.3329 8.16667 17.9166C8.16667 15.5004 6.20791 13.5416 3.79167 13.5416H0.875V9.16663C0.875 7.5558 2.18084 6.24996 3.79167 6.24996H8.16667V4.79163C8.16667 2.37538 10.1254 0.416626 12.5417 0.416626C14.9579 0.416626 16.9167 2.37538 16.9167 4.79163V6.24996H21.2917C22.9025 6.24996 24.2083 7.5558 24.2083 9.16663V13.5416Z" fill="#60FEEB"/>
</svg>
