<svg width="16" height="16" viewBox="0 0 16 16" fill="none" xmlns="http://www.w3.org/2000/svg">
<path d="M15.8047 7.52725L12.6193 4.34192C12.5261 4.24871 12.4073 4.18524 12.278 4.15953C12.1487 4.13382 12.0147 4.14702 11.8929 4.19747C11.7711 4.24791 11.667 4.33334 11.5937 4.44295C11.5205 4.55255 11.4814 4.68142 11.4813 4.81325V6.83192C11.4813 6.87612 11.4638 6.91852 11.4325 6.94977C11.4013 6.98103 11.3589 6.99859 11.3147 6.99859H1C0.734784 6.99859 0.48043 7.10394 0.292893 7.29148C0.105357 7.47902 0 7.73337 0 7.99859C0 8.2638 0.105357 8.51816 0.292893 8.70569C0.48043 8.89323 0.734784 8.99859 1 8.99859H11.3147C11.3589 8.99859 11.4013 9.01615 11.4325 9.0474C11.4638 9.07866 11.4813 9.12105 11.4813 9.16525V11.1839C11.4814 11.3158 11.5205 11.4446 11.5937 11.5542C11.667 11.6638 11.7711 11.7493 11.8929 11.7997C12.0147 11.8502 12.1487 11.8634 12.278 11.8376C12.4073 11.8119 12.5261 11.7485 12.6193 11.6553L15.8047 8.46992C15.9296 8.3449 15.9999 8.17536 15.9999 7.99859C15.9999 7.82181 15.9296 7.65227 15.8047 7.52725Z" fill="#60FEEB"/>
</svg>
