<svg width="40" height="40" viewBox="0 0 40 40" fill="none" xmlns="http://www.w3.org/2000/svg">
<path opacity="0.5" fill-rule="evenodd" clip-rule="evenodd" d="M33.3337 15.9485V27.7764C33.3337 28.3655 33.0227 28.9107 32.5158 29.2107L21.4818 35.7407V22.788C21.5087 22.7746 21.5353 22.7602 21.5617 22.745L33.3337 15.9485Z" fill="#60FEEB"/>
<path opacity="0.7" fill-rule="evenodd" clip-rule="evenodd" d="M6.66748 16.1243L18.1346 22.7448C18.2581 22.8161 18.3875 22.8676 18.5193 22.9003V35.7405L7.48532 29.2105C6.9784 28.9105 6.66748 28.3652 6.66748 27.7762V16.1243Z" fill="#60FEEB"/>
<path fill-rule="evenodd" clip-rule="evenodd" d="M7.02649 12.9111C7.16656 12.7343 7.34335 12.5848 7.54946 12.475L19.2161 6.26107C19.7059 6.00021 20.2934 6.00021 20.7831 6.26107L32.4498 12.475C32.6087 12.5596 32.7501 12.6678 32.8708 12.794L20.0795 20.1791C19.9954 20.2276 19.9179 20.2832 19.8472 20.3446C19.7765 20.2832 19.699 20.2276 19.6149 20.1791L7.02649 12.9111Z" fill="#60FEEB"/>
</svg>
