<svg width="36" height="36" viewBox="0 0 36 36" fill="none" xmlns="http://www.w3.org/2000/svg">
<path fill-rule="evenodd" clip-rule="evenodd" d="M12.8579 32.1879L18.0008 29.6989L23.1437 32.1879L25.4834 26.9754L31.023 25.5764L29.4648 20.0794L32.8091 15.4469L28.0821 12.2375L27.6662 6.53917L21.9822 7.11913L18.0008 3.02124L14.0194 7.11913L8.33537 6.53917L7.9195 12.2375L3.1925 15.4469L6.53677 20.0794L4.9786 25.5764L10.5182 26.9754L12.8579 32.1879ZM15.381 21.591C15.6605 21.8706 16.0099 22.0103 16.3593 22.0103C16.7087 22.0103 17.0581 21.8706 17.3376 21.591L22.9279 16.0008C23.4869 15.4417 23.4869 14.6032 22.9279 14.0442C22.3689 13.4851 21.5303 13.4851 20.9713 14.0442L16.3593 18.6561L14.5425 16.8393C14.0533 16.2803 13.1449 16.2803 12.5859 16.8393C12.0268 17.3983 12.0268 18.2369 12.5859 18.7959L15.381 21.591Z" fill="#60FEEB"/>
</svg>
