<svg width="28" height="17" viewBox="0 0 28 17" fill="none" xmlns="http://www.w3.org/2000/svg">
<path d="M18.7714 3.16621C18.2194 2.5797 18.2473 1.65676 18.8339 1.10476C19.4204 0.552754 20.3433 0.580722 20.8953 1.16723L26.7286 7.36514C27.2571 7.92667 27.2571 8.80259 26.7286 9.36412L20.8953 15.562C20.3433 16.1485 19.4204 16.1765 18.8339 15.6245C18.2473 15.0725 18.2194 14.1496 18.7714 13.5631L23.664 8.36463L18.7714 3.16621ZM9.22862 3.1662L4.33599 8.36463L9.22862 13.5631C9.78063 14.1496 9.75266 15.0725 9.16616 15.6245C8.57965 16.1765 7.65671 16.1485 7.10471 15.562L1.27137 9.36412C0.742875 8.80259 0.742875 7.92667 1.27137 7.36514L7.10471 1.16722C7.65671 0.580718 8.57965 0.55275 9.16616 1.10475C9.75266 1.65676 9.78063 2.5797 9.22862 3.1662Z" fill="#60FEEB"/>
</svg>
