<svg width="16" height="13" viewBox="0 0 16 13" fill="none" xmlns="http://www.w3.org/2000/svg">
<g clip-path="url(#clip0_208_4221)">
<path d="M14.5958 12.5H1.41602C1.16634 12.5 0.92689 12.3959 0.750342 12.2105C0.573793 12.0251 0.474609 11.7737 0.474609 11.5116V1.62678C0.474609 1.36462 0.573793 1.1132 0.750342 0.927824C0.92689 0.742448 1.16634 0.638306 1.41602 0.638306H14.5958C14.8454 0.638306 15.0849 0.742448 15.2614 0.927824C15.438 1.1132 15.5372 1.36462 15.5372 1.62678V11.5116C15.5372 11.7737 15.438 12.0251 15.2614 12.2105C15.0849 12.3959 14.8454 12.5 14.5958 12.5Z" fill="#EAEAEA"/>
<path d="M2.35743 12.5H1.41602C1.16634 12.5 0.92689 12.3959 0.750342 12.2105C0.573793 12.0251 0.474609 11.7737 0.474609 11.5116V1.62678C0.474609 1.49697 0.49896 1.36844 0.54627 1.24851C0.59358 1.12858 0.662924 1.01961 0.750342 0.927824C0.83776 0.836035 0.94154 0.763225 1.05576 0.713549C1.16997 0.663873 1.29239 0.638306 1.41602 0.638306C1.53965 0.638306 1.66206 0.663873 1.77628 0.713549C1.8905 0.763225 1.99428 0.836035 2.0817 0.927824C2.16911 1.01961 2.23846 1.12858 2.28577 1.24851C2.33308 1.36844 2.35743 1.49697 2.35743 1.62678V12.5Z" fill="#D54C3F"/>
<path d="M13.6543 12.5H14.5957C14.8454 12.5 15.0849 12.3959 15.2614 12.2105C15.438 12.0251 15.5371 11.7737 15.5371 11.5116V1.62678C15.5371 1.36462 15.438 1.1132 15.2614 0.927824C15.0849 0.742448 14.8454 0.638306 14.5957 0.638306C14.3461 0.638306 14.1066 0.742448 13.9301 0.927824C13.7535 1.1132 13.6543 1.36462 13.6543 1.62678V12.5Z" fill="#B63524"/>
<path d="M15.1339 2.43751C15.2353 2.36317 15.3217 2.2686 15.3883 2.15919C15.4548 2.04977 15.5002 1.92767 15.5219 1.79983C15.5435 1.672 15.5409 1.54095 15.5143 1.41416C15.4877 1.28738 15.4375 1.16733 15.3667 1.06089C15.2959 0.954447 15.2059 0.863688 15.1017 0.793795C14.9975 0.723902 14.8812 0.676244 14.7594 0.653542C14.6377 0.630839 14.5129 0.633537 14.3921 0.661482C14.2714 0.689427 14.1571 0.74207 14.0557 0.816407L8.00555 5.44149L8.00492 5.44182L8.0043 5.44149L1.95417 0.816407C1.74944 0.666277 1.49629 0.607692 1.25041 0.653542C1.00454 0.699391 0.786083 0.845919 0.643101 1.06089C0.500119 1.27586 0.444325 1.54167 0.487991 1.79983C0.531657 2.058 0.671208 2.28738 0.875943 2.43751L0.850839 2.41807L8.00492 7.88731L15.1339 2.43751ZM15.1593 2.41807L8.00492 7.88731L15.1593 2.41807Z" fill="#DE5145"/>
<path d="M14.5952 0.638307C14.3947 0.638307 14.2086 0.704205 14.0561 0.816233L8.00599 5.44132L8.00537 5.44165L8.00474 5.44132L1.95461 0.816233C1.79661 0.700121 1.60835 0.63799 1.4155 0.638307H14.5952Z" fill="#EFEFEF"/>
<path d="M2.35763 3.99458L0.771044 2.34448L0.770416 2.3458C0.803679 2.37875 0.839139 2.40906 0.876795 2.43674L0.851691 2.4173L2.35795 3.56888L2.35763 4.00644" fill="#C64132"/>
<path d="M6.96032 8.74036L2.35745 12.4995L2.35777 3.95349L6.95938 8.73904" fill="#E3E3E3"/>
<path d="M6.96 8.74048L8.0056 7.88676L2.35745 3.56909V3.95361L6.95906 8.73916L6.96 8.74048Z" fill="url(#paint0_linear_208_4221)"/>
<path d="M10.5351 12.5H13.6539V3.56909L8.00549 7.88709L6.95895 8.73949L10.5351 12.5Z" fill="url(#paint1_linear_208_4221)"/>
</g>
<defs>
<linearGradient id="paint0_linear_208_4221" x1="2.35745" y1="6.15495" x2="8.0056" y2="6.15495" gradientUnits="userSpaceOnUse">
<stop stop-color="#C8C8C8"/>
<stop offset="1" stop-color="#CDCDCD"/>
</linearGradient>
<linearGradient id="paint1_linear_208_4221" x1="6.95895" y1="8.03437" x2="13.6539" y2="8.03437" gradientUnits="userSpaceOnUse">
<stop stop-color="#D9D9D9"/>
<stop offset="1" stop-color="#E2E2E2"/>
</linearGradient>
<clipPath id="clip0_208_4221">
<rect width="16" height="12" fill="white" transform="translate(0 0.5)"/>
</clipPath>
</defs>
</svg>
