<svg width="36" height="20" viewBox="0 0 36 20" fill="none" xmlns="http://www.w3.org/2000/svg">
<path d="M8.15636 3.53125V16.6562H27.8439V3.53125H8.15636ZM31.1251 16.6562H33.3924C34.0138 16.6562 34.5819 17.0073 34.8598 17.5632L35.2267 18.2969C35.5067 18.8569 35.2797 19.5378 34.7197 19.8178C34.5623 19.8965 34.3887 19.9375 34.2127 19.9375H1.78751C1.16142 19.9375 0.65387 19.43 0.65387 18.8039C0.65387 18.6279 0.694845 18.4543 0.773552 18.2969L1.14041 17.5632C1.41832 17.0073 1.9864 16.6562 2.60783 16.6562H4.87511V3.53125C4.87511 1.71907 6.34418 0.25 8.15636 0.25H27.8439C29.656 0.25 31.1251 1.71907 31.1251 3.53125V16.6562Z" fill="#60FEEB"/>
</svg>
