<svg width="16" height="17" viewBox="0 0 16 17" fill="none" xmlns="http://www.w3.org/2000/svg">
<g clip-path="url(#clip0_208_4212)">
<path d="M-0.000946045 1.67364C-0.000946045 1.04355 0.528679 0.532104 1.18155 0.532104H14.8166C15.4697 0.532104 15.9991 1.04355 15.9991 1.67364V15.3267C15.9991 15.957 15.4697 16.4681 14.8166 16.4681H1.18155C0.528741 16.4681 -0.000946045 15.9571 -0.000946045 15.3269V1.67346V1.67364Z" fill="#006699"/>
<path d="M4.86057 13.8693V6.69481H2.46632V13.8693H4.86082H4.86057ZM3.66395 5.71543C4.4987 5.71543 5.01838 5.16452 5.01838 4.47604C5.00276 3.77186 4.4987 3.23633 3.67982 3.23633C2.86038 3.23633 2.3252 3.77186 2.3252 4.47597C2.3252 5.16446 2.8447 5.71537 3.64826 5.71537H3.66376L3.66395 5.71543ZM6.18582 13.8693H8.57988V9.86315C8.57988 9.64901 8.59551 9.43431 8.65876 9.28136C8.83176 8.85277 9.2257 8.40912 9.88726 8.40912C10.7534 8.40912 11.1001 9.06697 11.1001 10.0315V13.8693H13.4941V9.75565C13.4941 7.55206 12.3131 6.52661 10.7379 6.52661C9.44645 6.52661 8.87926 7.24554 8.56413 7.7352H8.58007V6.69506H6.18595C6.2172 7.36811 6.18576 13.8695 6.18576 13.8695L6.18582 13.8693Z" fill="white"/>
</g>
<defs>
<clipPath id="clip0_208_4212">
<rect width="16" height="16" fill="white" transform="translate(0 0.5)"/>
</clipPath>
</defs>
</svg>
