<svg width="18" height="30" viewBox="0 0 18 30" fill="none" xmlns="http://www.w3.org/2000/svg">
<path fill-rule="evenodd" clip-rule="evenodd" d="M7.50946 0.125V12.025C7.50946 12.1532 7.52572 12.2777 7.55631 12.3965C6.63966 12.9039 6.0192 13.8796 6.0192 15C6.0192 16.643 7.35362 17.975 8.99971 17.975C10.6458 17.975 11.9802 16.643 11.9802 15C11.9802 13.8796 11.3598 12.9039 10.4431 12.3965C10.4737 12.2777 10.49 12.1532 10.49 12.025V0.125L17.6321 14.3829C17.8282 14.7743 17.8416 15.2319 17.669 15.6341L13.664 24.9617C13.5466 25.2351 13.2772 25.4124 12.9791 25.4124H5.02028C4.72221 25.4124 4.45282 25.2351 4.3354 24.9617L0.330456 15.6341C0.157778 15.2319 0.171251 14.7743 0.367292 14.3829L7.50946 0.125Z" fill="#60FEEB"/>
<path opacity="0.3" fill-rule="evenodd" clip-rule="evenodd" d="M6.01894 26.8999H11.98C12.803 26.8999 13.4702 27.5659 13.4702 28.3874V29.8749H4.52869V28.3874C4.52869 27.5659 5.1959 26.8999 6.01894 26.8999Z" fill="#60FEEB"/>
</svg>
