<svg width="24" height="24" viewBox="0 0 24 24" fill="none" xmlns="http://www.w3.org/2000/svg">
<path fill-rule="evenodd" clip-rule="evenodd" d="M10.9671 14.6534L18.9434 5.02691L9.31689 13.0032L5.73804 9.42432C5.68802 9.3743 5.64918 9.31423 5.62409 9.24809C5.52616 8.9899 5.65607 8.7012 5.91427 8.60327L20.1049 3.22062C20.2191 3.17729 20.3453 3.17729 20.4595 3.22062C20.7177 3.31856 20.8476 3.60726 20.7497 3.86545L15.367 18.056C15.342 18.1222 15.3031 18.1823 15.2531 18.2323C15.0578 18.4275 14.7413 18.4275 14.546 18.2323L10.9671 14.6534Z" fill="#FF4F4F"/>
<path opacity="0.3" fill-rule="evenodd" clip-rule="evenodd" d="M10.1422 19.4853L10.8493 18.7782C11.2398 18.3877 11.873 18.3877 12.2635 18.7782C12.654 19.1687 12.654 19.8019 12.2635 20.1924L11.5564 20.8995C11.1659 21.2901 10.5327 21.2901 10.1422 20.8995C9.75165 20.509 9.75165 19.8758 10.1422 19.4853ZM4.48532 18.0711L7.31374 15.2427C7.70427 14.8522 8.33743 14.8522 8.72796 15.2427C9.11848 15.6332 9.11848 16.2664 8.72796 16.6569L5.89953 19.4853C5.50901 19.8758 4.87584 19.8758 4.48532 19.4853C4.09479 19.0948 4.09479 18.4616 4.48532 18.0711ZM3.0711 12.4142L3.77821 11.7071C4.16873 11.3166 4.8019 11.3166 5.19242 11.7071C5.58295 12.0977 5.58295 12.7308 5.19242 13.1214L4.48532 13.8285C4.09479 14.219 3.46163 14.219 3.0711 13.8285C2.68058 13.4379 2.68058 12.8048 3.0711 12.4142Z" fill="#FF4F4F"/>
</svg>
