<svg width="24" height="24" viewBox="0 0 24 24" fill="none" xmlns="http://www.w3.org/2000/svg">
<path opacity="0.5" fill-rule="evenodd" clip-rule="evenodd" d="M11.6314 2.56978L4 4.00067V13.2837C4 16.2181 5.51165 18.9455 8 20.5007L11.47 22.6694C11.7943 22.8721 12.2057 22.8721 12.53 22.6694L16 20.5007C18.4883 18.9455 20 16.2181 20 13.2837V4.00067L12.3686 2.56978C12.125 2.5241 11.875 2.5241 11.6314 2.56978ZM17.3333 12C17.3333 9.05452 14.9455 6.66671 12 6.66671C9.05448 6.66671 6.66667 9.05452 6.66667 12C6.66667 14.9456 9.05448 17.3334 12 17.3334C14.9455 17.3334 17.3333 14.9456 17.3333 12Z" fill="#5AFFB0"/>
<path d="M12 14.6664C10.7443 14.6664 9.69469 14.0366 8.88956 12.8289C8.72617 12.5838 8.79239 12.2527 9.03748 12.0893C9.28256 11.9259 9.61369 11.9921 9.77708 12.2372C10.3942 13.1628 11.1223 13.5997 12 13.5997C12.8777 13.5997 13.6058 13.1628 14.2229 12.2372C14.3863 11.9921 14.7174 11.9259 14.9625 12.0893C15.2076 12.2527 15.2738 12.5838 15.1104 12.8289C14.3053 14.0366 13.2556 14.6664 12 14.6664Z" fill="#5AFFB0"/>
</svg>
