<svg width="16" height="17" viewBox="0 0 16 17" fill="none" xmlns="http://www.w3.org/2000/svg">
<g clip-path="url(#clip0_208_4204)">
<path d="M8.20499 14.7655C4.98882 14.7655 1.33444 10.9473 1.62669 7.77746C1.91895 4.7518 6.01222 1.94225 9.04544 2.37449C11.7134 2.73446 14.0891 6.04851 13.9425 8.67807C13.7969 11.4511 11.0189 14.7655 8.20499 14.7655Z" fill="white"/>
<path d="M10.5055 16.3862C10.2859 16.3143 9.957 16.2424 9.77439 16.1701C9.55511 16.0624 9.29917 16.0624 8.49539 16.0982C7.72792 16.134 7.32568 16.0982 6.77783 16.0259C3.85392 15.5221 1.51485 13.4328 0.674404 10.5514C0.528106 10.0111 0.491788 9.72302 0.491788 8.42631C0.491788 7.0212 0.455128 6.91348 0.272511 6.33705C-0.787212 3.49137 1.36889 0.501831 4.43877 0.501831C5.05994 0.501831 5.82741 0.682156 6.26596 0.897937C6.55856 1.04213 6.74117 1.07792 7.87388 1.07792C8.89728 1.07792 9.29917 1.11406 9.8107 1.25825C12.1135 1.83468 13.977 3.31138 14.9637 5.36451C15.5849 6.62509 15.8045 7.92214 15.6579 9.39851C15.5849 10.1914 15.5849 10.2633 15.7675 10.7314C16.3523 12.4245 15.8042 14.3692 14.3789 15.5221C13.94 15.8824 13.0632 16.2785 12.515 16.4227C11.9665 16.5308 11.0897 16.5308 10.5412 16.3866H10.5055V16.3862ZM9.51845 13.6128C10.7248 13.3609 11.7842 12.6403 12.1864 11.7762C12.698 10.7314 12.5517 9.50657 11.8575 8.75015C11.2727 8.10179 10.3956 7.74182 8.31243 7.23765C6.92345 6.91348 6.59453 6.76928 6.30228 6.44511C6.04634 6.15672 6.00968 5.94094 6.2293 5.61676C6.44858 5.25645 6.99677 5.04033 7.72758 5.00454C8.78764 4.93261 9.26251 5.18452 9.88368 6.15706C10.3589 6.87768 10.8338 7.05767 11.4556 6.76928C12.2594 6.37318 12.1864 5.07646 11.309 4.32005C10.4685 3.6359 9.55511 3.34751 8.01983 3.34751C6.41192 3.34751 5.31519 3.67169 4.58438 4.39197C3.99953 4.9684 3.89023 5.29258 3.89023 6.19285C3.89023 7.12926 3.99987 7.4173 4.62104 7.95794C5.27887 8.57016 5.82706 8.78662 7.80021 9.25465C9.18919 9.57883 9.55477 9.75882 9.88334 10.1191C10.03 10.2995 10.103 10.4433 10.103 10.7675C10.103 11.1278 10.0663 11.1997 9.77404 11.4881C9.33549 11.92 8.67766 12.1 7.83721 12.0645C6.85047 11.9923 6.41192 11.7042 5.90038 10.6956C5.53481 10.0114 5.24255 9.75916 4.76734 9.75916C3.70727 9.75916 3.34204 10.6236 3.89023 11.74C4.36545 12.7129 5.31553 13.3613 6.52155 13.6132C7.25236 13.7574 8.86062 13.7574 9.55511 13.6132H9.51845V13.6128Z" fill="#00AFF0"/>
</g>
<defs>
<clipPath id="clip0_208_4204">
<rect width="16" height="16" fill="white" transform="translate(0 0.5)"/>
</clipPath>
</defs>
</svg>
