<svg width="24" height="24" viewBox="0 0 24 24" fill="none" xmlns="http://www.w3.org/2000/svg">
<path opacity="0.3" d="M22 12C22 6.47715 17.5228 2 12 2C6.47715 2 2 6.47715 2 12C2 17.5228 6.47715 22 12 22C17.5228 22 22 17.5228 22 12Z" fill="#8D65FF"/>
<path fill-rule="evenodd" clip-rule="evenodd" d="M6.16793 14.5547C5.86158 14.0952 5.98576 13.4743 6.44528 13.1679C6.90481 12.8616 7.52568 12.9858 7.83203 13.4453C8.98907 15.1808 10.3543 16 12 16C13.6457 16 15.0109 15.1808 16.1679 13.4453C16.4743 12.9858 17.0952 12.8616 17.5547 13.1679C18.0142 13.4743 18.1384 14.0952 17.832 14.5547C16.3224 16.8191 14.3543 18 12 18C9.64565 18 7.67757 16.8191 6.16793 14.5547Z" fill="#8D65FF"/>
</svg>
