<svg width="16" height="12" viewBox="0 0 16 12" fill="none" xmlns="http://www.w3.org/2000/svg">
<path d="M12.3636 6.82024C11.6304 6.82024 10.9433 6.49244 10.3191 5.95881L10.4711 5.20549L10.4777 5.17758C10.6131 4.3755 11.0425 3.02919 12.3636 3.02919C13.3544 3.02919 14.1604 3.88021 14.1604 4.92644C14.157 5.96923 13.3512 6.82024 12.3636 6.82024ZM12.3636 1.10757C10.6758 1.10757 9.36797 2.26546 8.83627 4.16968C8.02373 2.88274 7.40938 1.33777 7.04941 0.0368652L5.23286 0.0368652V5.02758C5.23286 6.0111 4.4732 6.81317 3.54179 6.81317C2.61038 6.81317 1.85081 6.0111 1.85081 5.02758L1.85081 0.0368652L0.0340783 0.0368652L0.0340783 5.02758C0.0274695 7.07138 1.60293 8.74885 3.53835 8.74885C5.47386 8.74885 7.04932 7.07138 7.04932 5.02758V4.19062C7.40268 4.96831 7.83534 5.75298 8.36052 6.45056L7.24741 11.9748H9.10697L9.91281 7.96762C10.6196 8.44542 11.4321 8.74541 12.3635 8.74541C14.3551 8.74541 15.9768 7.02253 15.9768 4.91946C15.9768 2.81993 14.3551 1.10757 12.3635 1.10757H12.3636Z" fill="white"/>
</svg>
