<svg width="24" height="24" viewBox="0 0 24 24" fill="none" xmlns="http://www.w3.org/2000/svg">
<path opacity="0.3" d="M9 11C6.79086 11 5 9.20914 5 7C5 4.79086 6.79086 3 9 3C11.2091 3 13 4.79086 13 7C13 9.20914 11.2091 11 9 11Z" fill="#FFE767"/>
<path d="M21 8H17C16.4477 8 16 7.55228 16 7C16 6.44772 16.4477 6 17 6H21C21.5523 6 22 6.44772 22 7C22 7.55228 21.5523 8 21 8Z" fill="#FFE767"/>
<path d="M20 5L20 9C20 9.55228 19.5523 10 19 10C18.4477 10 18 9.55228 18 9L18 5C18 4.44772 18.4477 4 19 4C19.5523 4 20 4.44772 20 5Z" fill="#FFE767"/>
<path d="M0.000651684 20.1992C0.388259 15.4265 4.26191 13 8.98334 13C13.7712 13 17.7049 15.2932 17.9979 20.2C18.0096 20.3955 17.9979 21 17.2467 21C13.5411 21 8.03472 21 0.727502 21C0.476712 21 -0.0204618 20.4592 0.000651684 20.1992Z" fill="#FFE767"/>
</svg>
