<svg width="36" height="36" viewBox="0 0 36 36" fill="none" xmlns="http://www.w3.org/2000/svg">
<path opacity="0.3" d="M26.7489 20.915C24.3326 20.915 22.3739 18.9562 22.3739 16.54C22.3739 14.1237 24.3326 12.165 26.7489 12.165C29.1651 12.165 31.1239 14.1237 31.1239 16.54C31.1239 18.9562 29.1651 20.915 26.7489 20.915ZM13.6239 16.54C10.4022 16.54 7.79053 13.9283 7.79053 10.7066C7.79053 7.48496 10.4022 4.87329 13.6239 4.87329C16.8455 4.87329 19.4572 7.48496 19.4572 10.7066C19.4572 13.9283 16.8455 16.54 13.6239 16.54Z" fill="#60FEEB"/>
<path d="M26.1684 22.3753C31.1362 22.4296 35.1925 24.9413 35.4978 30.2494C35.5101 30.4632 35.4978 31.1244 34.7066 31.1244H29.0833C29.0833 27.8418 27.9988 24.8125 26.1684 22.3753ZM0.50095 29.9566C1.06621 22.9964 6.71529 19.4578 13.6007 19.4578C20.583 19.4578 26.3196 22.802 26.747 29.9578C26.764 30.2428 26.747 31.1244 25.6514 31.1244C20.2475 31.1244 12.2173 31.1244 1.56094 31.1244C1.19521 31.1244 0.47016 30.3357 0.50095 29.9566Z" fill="#60FEEB"/>
</svg>
