<svg width="16" height="16" viewBox="0 0 16 16" fill="none" xmlns="http://www.w3.org/2000/svg">
<path d="M9.53264 8.1179C9.51712 8.10242 9.50481 8.08403 9.4964 8.06378C9.488 8.04353 9.48368 8.02182 9.48368 7.9999C9.48368 7.97798 9.488 7.95628 9.4964 7.93603C9.50481 7.91578 9.51712 7.89739 9.53264 7.88191L15.7075 1.70749C15.895 1.51972 16.0002 1.26516 16 0.999809C15.9998 0.734456 15.8942 0.480045 15.7065 0.292545C15.5187 0.105044 15.2642 -0.000187276 14.9988 2.50204e-07C14.7335 0.000187776 14.4791 0.105779 14.2916 0.293545L8.11742 6.4653C8.10194 6.48082 8.08355 6.49313 8.0633 6.50153C8.04306 6.50994 8.02135 6.51426 7.99943 6.51426C7.97751 6.51426 7.9558 6.50994 7.93556 6.50153C7.91531 6.49313 7.89692 6.48082 7.88144 6.4653L1.70728 0.293545C1.61444 0.20066 1.50422 0.126971 1.38291 0.0766857C1.26159 0.0264001 1.13156 0.000502573 1.00024 0.000471621C0.735021 0.000409111 0.480642 0.105711 0.293061 0.293211C0.10548 0.480712 6.25348e-05 0.735052 2.78134e-08 1.00028C-6.24792e-05 1.26551 0.105235 1.5199 0.292727 1.70749L6.46622 7.88191C6.48174 7.89739 6.49406 7.91578 6.50246 7.93603C6.51086 7.95628 6.51518 7.97798 6.51518 7.9999C6.51518 8.02182 6.51086 8.04353 6.50246 8.06378C6.49406 8.08403 6.48174 8.10242 6.46622 8.1179L0.292727 14.293C0.19989 14.3859 0.126257 14.4961 0.0760305 14.6175C0.0258043 14.7388 -3.09225e-05 14.8689 2.78134e-08 15.0002C6.25348e-05 15.2654 0.10548 15.5198 0.293061 15.7073C0.385942 15.8001 0.496198 15.8737 0.617536 15.924C0.738874 15.9742 0.868916 16 1.00024 16C1.26546 15.9999 1.51979 15.8945 1.70728 15.7069L7.88144 9.53184C7.89692 9.51632 7.91531 9.50401 7.93556 9.49561C7.9558 9.4872 7.97751 9.48288 7.99943 9.48288C8.02135 9.48288 8.04306 9.4872 8.0633 9.49561C8.08355 9.50401 8.10194 9.51632 8.11742 9.53184L14.2916 15.7069C14.4791 15.8945 14.7334 15.9999 14.9986 16C15.2638 16.0001 15.5182 15.8948 15.7058 15.7073C15.8934 15.5198 15.9988 15.2654 15.9989 15.0002C15.9989 14.735 15.8936 14.4806 15.7061 14.293L9.53264 8.1179Z" fill="#F2F2F2"/>
</svg>
