<svg width="207" height="32" viewBox="0 0 207 32" fill="none" xmlns="http://www.w3.org/2000/svg">
<path d="M5.1414 5.29443C6.17605 5.44533 7.52667 5.48232 9.23791 5.14528C11.8736 4.62617 15.3494 3.22292 19.8362 0.00874214L18.3893 0.402959C14.5031 3.01933 11.4638 4.19531 9.14073 4.65284C7.62442 4.95149 6.40788 4.94517 5.45315 4.82968L5.1414 5.29443Z" fill="url(#paint0_radial_150_5601)"/>
<path d="M4.25987 6.60853L4.55871 6.16305C7.18935 6.75417 9.8651 6.19582 12.5571 5.04479C15.3817 3.83709 18.1934 1.99089 20.9586 0.175288C21.0476 0.116819 21.1366 0.0583827 21.2255 0L21.8634 0.182066C21.6521 0.320503 21.4403 0.459623 21.2279 0.599103C18.4715 2.40918 15.6227 4.28 12.7548 5.50622C9.94753 6.70654 7.0928 7.30249 4.25987 6.60853Z" fill="url(#paint1_radial_150_5601)"/>
<path d="M3.42089 7.85923L3.71668 7.41828C8.69905 8.70663 12.5994 6.90147 15.6605 5.06658C16.9219 4.31051 18.9897 2.95847 20.746 1.79275C21.5122 1.28417 22.2181 0.811763 22.7703 0.440912L23.4019 0.621216C23.3628 0.647572 23.3224 0.674711 23.281 0.702595C22.7015 1.09232 21.9024 1.6278 21.024 2.21081C19.2689 3.37571 17.1918 4.73405 15.919 5.49697C12.7848 7.37567 8.68036 9.28477 3.42089 7.85923Z" fill="url(#paint2_radial_150_5601)"/>
<path d="M2.52054 9.2014L2.81188 8.76709C7.63149 10.2648 11.9417 8.66778 15.214 6.82002C16.1783 6.2755 17.2997 5.57788 18.4832 4.84162L18.4835 4.84141L18.4837 4.84126L18.4841 4.84104C19.431 4.25196 20.4176 3.63817 21.3953 3.05829C22.4875 2.41056 23.5613 1.80999 24.5348 1.34866C24.7199 1.26097 24.902 1.17796 25.0806 1.10038L25.863 1.32369C25.5166 1.4544 25.1441 1.61548 24.7501 1.80215C23.7972 2.25369 22.7389 2.84518 21.6518 3.48989C20.6977 4.05573 19.7156 4.66648 18.7672 5.25627L18.7671 5.25633L18.767 5.25641C17.57 6.00079 16.4267 6.71181 15.4612 7.25698C12.1085 9.15012 7.59093 10.8362 2.52054 9.2014Z" fill="url(#paint3_radial_150_5601)"/>
<path d="M1.66269 10.4802L1.9508 10.0507C7.70735 12.1146 12.1348 10.129 16.1695 7.87353C16.8239 7.50773 17.5186 7.0991 18.2447 6.67195L18.2448 6.67188C19.8267 5.74138 21.558 4.72296 23.3477 3.86776C25.0128 3.07207 26.7486 2.40677 28.4938 2.07461L29.664 2.40862C27.63 2.61901 25.5653 3.36445 23.5645 4.32055C21.7942 5.16651 20.0973 6.16481 18.5247 7.09002C17.7928 7.5206 17.0878 7.93535 16.4149 8.31154C12.3227 10.5992 7.6908 12.6913 1.66269 10.4802Z" fill="url(#paint4_radial_150_5601)"/>
<path d="M0.877736 11.6504L1.16367 11.2241C7.84163 13.8747 13.1229 11.1986 18.2305 8.37484C18.4667 8.24425 18.7021 8.11338 18.9373 7.98269L18.9383 7.98209C21.2697 6.68626 23.5682 5.40866 26.2492 4.60228C28.7057 3.86342 31.4782 3.52077 34.8981 3.90263L35.3337 4.02694L35.619 4.49938C31.9005 3.97772 28.9648 4.30966 26.3941 5.08289C23.7679 5.87279 21.5163 7.12393 19.1782 8.4232L19.1765 8.42415C18.9433 8.55376 18.7091 8.68385 18.4737 8.81401C13.3435 11.6503 7.84038 14.4625 0.877736 11.6504Z" fill="url(#paint5_radial_150_5601)"/>
<path d="M0.13285 12.7608L0.414633 12.3407C6.73557 15.5248 12.5721 13.3485 18.9822 9.73112C22.5062 7.74238 25.3111 6.45852 28.3294 5.89925C30.765 5.44795 33.3258 5.47087 36.5007 5.95906L36.8403 6.52122C33.5072 5.97535 30.89 5.93528 28.4211 6.39276C25.4857 6.93665 22.739 8.18749 19.2293 10.1681C12.7818 13.8067 6.71896 16.1092 0.13285 12.7608Z" fill="url(#paint6_radial_150_5601)"/>
<path d="M0.525873 14.5094L0 13.6846C6.63155 17.2408 13.2731 14.4186 19.9961 10.981C23.1951 9.3453 26.1239 8.12698 29.2709 7.61889C31.8558 7.20155 34.5774 7.26492 37.7078 7.95736L38.069 8.5554C34.7931 7.77429 31.9936 7.68773 29.3511 8.11438C26.2807 8.61012 23.4066 9.80101 20.225 11.4278C13.7738 14.7265 7.15838 17.6013 0.525873 14.5094Z" fill="url(#paint7_radial_150_5601)"/>
<path d="M1.76555 16.4538L1.34174 15.789C4.95133 17.0086 8.03054 17.0899 11.0172 16.4566C14.1339 15.7957 17.1591 14.3551 20.5985 12.5874C24.0831 10.7963 27.2405 9.7046 30.4699 9.3426C33.1714 9.03978 35.9127 9.24878 38.9268 9.97543L39.2946 10.5843C36.1332 9.77143 33.3029 9.53011 30.526 9.84139C27.3747 10.1946 24.2771 11.2611 20.8284 13.0337C17.3906 14.8006 14.3115 16.2712 11.1215 16.9476C8.20883 17.5652 5.21145 17.5197 1.76555 16.4538Z" fill="url(#paint8_radial_150_5601)"/>
<path d="M2.95037 18.3121L2.55855 17.6976C5.43664 18.4421 7.92567 18.6034 10.7812 18.0568C13.8983 17.4602 17.465 16.0178 22.4606 13.5395C28.941 10.3245 35.9171 10.7396 40.2141 12.1066L40.609 12.7604V12.7693C36.4955 11.2986 29.3222 10.6958 22.6841 13.989C17.6817 16.4707 14.0638 17.9396 10.8757 18.5498C8.10803 19.0795 5.67385 18.9605 2.95037 18.3121Z" fill="url(#paint9_radial_150_5601)"/>
<path d="M4.07277 20.0726L3.68448 19.4635C10.1822 21.129 16.0588 18.4228 21.1795 16.0646C21.753 15.8005 22.317 15.5408 22.8714 15.292C28.4432 12.7919 34.8049 12.3552 40.609 13.9822V14.5039C34.8811 12.8634 28.5845 13.2787 23.0772 15.7499C22.5259 15.9973 21.9621 16.2573 21.3863 16.5229C16.417 18.8148 10.5537 21.5191 4.07277 20.0726Z" fill="url(#paint10_radial_150_5601)"/>
<path d="M7.42067 22.1999L4.95101 21.2554C8.59563 22.2232 12.2222 21.7025 15.5614 20.7136C17.336 20.1881 19.024 19.5321 20.5871 18.9005C20.8774 18.7832 21.1637 18.6666 21.4457 18.5518C22.6769 18.0505 23.8243 17.5833 24.8543 17.2403C28.9209 15.886 34.5238 14.2485 40.609 15.9444V16.4661C34.6304 14.7519 29.1031 16.3544 25.0132 17.7165C24.0004 18.0537 22.8725 18.513 21.6423 19.0138L21.6421 19.0139L21.6415 19.0142C21.3582 19.1295 21.0694 19.2471 20.7754 19.3659C19.2094 19.9986 17.503 20.6622 15.7042 21.1949C13.1014 21.9656 10.2939 22.4659 7.42067 22.1999Z" fill="url(#paint11_radial_150_5601)"/>
<path d="M13.9545 24.6987L13.0492 24.3525C17.1979 23.6518 20.5639 22.3229 23.7803 21.053C24.8356 20.6363 25.8749 20.226 26.9203 19.8464C31.0079 18.362 35.1508 17.3669 40.609 18.3753V18.8859C35.2242 17.8713 31.1531 18.8433 27.092 20.3181C26.0689 20.6896 25.0439 21.0944 23.9973 21.5077C20.9844 22.6976 17.7925 23.9581 13.9545 24.6987Z" fill="url(#paint12_radial_150_5601)"/>
<path d="M19.3323 26.7554L18.4861 26.4317C21.8216 25.7184 24.6143 24.5959 27.2736 23.5269C28.1356 23.1804 28.9836 22.8395 29.8315 22.5201C33.1417 21.2729 36.4267 20.3648 40.4574 20.7895L39.777 21.233C36.1397 20.9715 33.108 21.8221 30.0088 22.9897C29.1787 23.3025 28.3422 23.6388 27.4873 23.9825C25.0184 24.9752 22.3962 26.0295 19.3323 26.7554Z" fill="url(#paint13_radial_150_5601)"/>
<path d="M24.0557 28.5618L23.2272 28.2449C26.1177 27.5845 28.956 26.4998 31.6239 25.4802L31.6268 25.4791C32.0352 25.323 32.4395 25.1685 32.8394 25.0173C33.7113 24.6875 34.5626 24.3734 35.3871 24.0942L33.5686 25.2794C33.3861 25.3476 33.2023 25.4167 33.0173 25.4867C32.6187 25.6374 32.2146 25.7919 31.8055 25.9483C29.3599 26.8831 26.7377 27.8855 24.0557 28.5618Z" fill="url(#paint14_radial_150_5601)"/>
<path d="M28.1708 30.1355L27.4034 29.842L30.8832 28.796L30.7912 29.3478L28.1708 30.1355Z" fill="url(#paint15_radial_150_5601)"/>
<path d="M30.601 30.488L30.5105 31.0303L29.7569 30.7421L30.601 30.488Z" fill="url(#paint16_radial_150_5601)"/>
<path d="M7.42751 3.38961L6.19366 3.72579L6.05334 3.93497C8.8501 3.9742 12.3192 3.24236 16.1711 1.00734L13.8978 1.62671C11.522 2.72538 9.33879 3.24335 7.42751 3.38961Z" fill="url(#paint17_radial_150_5601)"/>
<g style="mix-blend-mode:multiply">
<path d="M5.1414 5.29443C6.17605 5.44533 7.52667 5.48232 9.23791 5.14528C11.8736 4.62617 15.3494 3.22292 19.8362 0.00874214L18.3893 0.402959C14.5031 3.01933 11.4638 4.19531 9.14073 4.65284C7.62442 4.95149 6.40788 4.94517 5.45315 4.82968L5.1414 5.29443Z" fill="url(#paint18_linear_150_5601)"/>
<path d="M4.25987 6.60853L4.55871 6.16305C7.18935 6.75417 9.8651 6.19582 12.5571 5.04479C15.3817 3.83709 18.1934 1.99089 20.9586 0.175288C21.0476 0.116819 21.1366 0.0583827 21.2255 0L21.8634 0.182066C21.6521 0.320503 21.4403 0.459623 21.2279 0.599103C18.4715 2.40918 15.6227 4.28 12.7548 5.50622C9.94753 6.70654 7.0928 7.30249 4.25987 6.60853Z" fill="url(#paint19_linear_150_5601)"/>
<path d="M3.42089 7.85923L3.71668 7.41828C8.69905 8.70663 12.5994 6.90147 15.6605 5.06658C16.9219 4.31051 18.9897 2.95847 20.746 1.79275C21.5122 1.28417 22.2181 0.811763 22.7703 0.440912L23.4019 0.621216C23.3628 0.647572 23.3224 0.674711 23.281 0.702595C22.7015 1.09232 21.9024 1.6278 21.024 2.21081C19.2689 3.37571 17.1918 4.73405 15.919 5.49697C12.7848 7.37567 8.68036 9.28477 3.42089 7.85923Z" fill="url(#paint20_linear_150_5601)"/>
<path d="M2.52054 9.2014L2.81188 8.76709C7.63149 10.2648 11.9417 8.66778 15.214 6.82002C16.1783 6.2755 17.2997 5.57788 18.4832 4.84162L18.4835 4.84141L18.4837 4.84126L18.4841 4.84104C19.431 4.25196 20.4176 3.63817 21.3953 3.05829C22.4875 2.41056 23.5613 1.80999 24.5348 1.34866C24.7199 1.26097 24.902 1.17796 25.0806 1.10038L25.863 1.32369C25.5166 1.4544 25.1441 1.61548 24.7501 1.80215C23.7972 2.25369 22.7389 2.84518 21.6518 3.48989C20.6977 4.05573 19.7156 4.66648 18.7672 5.25627L18.7671 5.25633L18.767 5.25641C17.57 6.00079 16.4267 6.71181 15.4612 7.25698C12.1085 9.15012 7.59093 10.8362 2.52054 9.2014Z" fill="url(#paint21_linear_150_5601)"/>
<path d="M1.66269 10.4802L1.9508 10.0507C7.70735 12.1146 12.1348 10.129 16.1695 7.87353C16.8239 7.50773 17.5186 7.0991 18.2447 6.67195L18.2448 6.67188C19.8267 5.74138 21.558 4.72296 23.3477 3.86776C25.0128 3.07207 26.7486 2.40677 28.4938 2.07461L29.664 2.40862C27.63 2.61901 25.5653 3.36445 23.5645 4.32055C21.7942 5.16651 20.0973 6.16481 18.5247 7.09002C17.7928 7.5206 17.0878 7.93535 16.4149 8.31154C12.3227 10.5992 7.6908 12.6913 1.66269 10.4802Z" fill="url(#paint22_linear_150_5601)"/>
<path d="M0.877736 11.6504L1.16367 11.2241C7.84163 13.8747 13.1229 11.1986 18.2305 8.37484C18.4667 8.24425 18.7021 8.11338 18.9373 7.98269L18.9383 7.98209C21.2697 6.68626 23.5682 5.40866 26.2492 4.60228C28.7057 3.86342 31.4782 3.52077 34.8981 3.90263L35.3337 4.02694L35.619 4.49938C31.9005 3.97772 28.9648 4.30966 26.3941 5.08289C23.7679 5.87279 21.5163 7.12393 19.1782 8.4232L19.1765 8.42415C18.9433 8.55376 18.7091 8.68385 18.4737 8.81401C13.3435 11.6503 7.84038 14.4625 0.877736 11.6504Z" fill="url(#paint23_linear_150_5601)"/>
<path d="M0.13285 12.7608L0.414633 12.3407C6.73557 15.5248 12.5721 13.3485 18.9822 9.73112C22.5062 7.74238 25.3111 6.45852 28.3294 5.89925C30.765 5.44795 33.3258 5.47087 36.5007 5.95906L36.8403 6.52122C33.5072 5.97535 30.89 5.93528 28.4211 6.39276C25.4857 6.93665 22.739 8.18749 19.2293 10.1681C12.7818 13.8067 6.71896 16.1092 0.13285 12.7608Z" fill="url(#paint24_linear_150_5601)"/>
<path d="M0.525873 14.5094L0 13.6846C6.63155 17.2408 13.2731 14.4186 19.9961 10.981C23.1951 9.3453 26.1239 8.12698 29.2709 7.61889C31.8558 7.20155 34.5774 7.26492 37.7078 7.95736L38.069 8.5554C34.7931 7.77429 31.9936 7.68773 29.3511 8.11438C26.2807 8.61012 23.4066 9.80101 20.225 11.4278C13.7738 14.7265 7.15838 17.6013 0.525873 14.5094Z" fill="url(#paint25_linear_150_5601)"/>
<path d="M1.76555 16.4538L1.34174 15.789C4.95133 17.0086 8.03054 17.0899 11.0172 16.4566C14.1339 15.7957 17.1591 14.3551 20.5985 12.5874C24.0831 10.7963 27.2405 9.7046 30.4699 9.3426C33.1714 9.03978 35.9127 9.24878 38.9268 9.97543L39.2946 10.5843C36.1332 9.77143 33.3029 9.53011 30.526 9.84139C27.3747 10.1946 24.2771 11.2611 20.8284 13.0337C17.3906 14.8006 14.3115 16.2712 11.1215 16.9476C8.20883 17.5652 5.21145 17.5197 1.76555 16.4538Z" fill="url(#paint26_linear_150_5601)"/>
<path d="M2.95037 18.3121L2.55855 17.6976C5.43664 18.4421 7.92567 18.6034 10.7812 18.0568C13.8983 17.4602 17.465 16.0178 22.4606 13.5395C28.941 10.3245 35.9171 10.7396 40.2141 12.1066L40.609 12.7604V12.7693C36.4955 11.2986 29.3222 10.6958 22.6841 13.989C17.6817 16.4707 14.0638 17.9396 10.8757 18.5498C8.10803 19.0795 5.67385 18.9605 2.95037 18.3121Z" fill="url(#paint27_linear_150_5601)"/>
<path d="M4.07277 20.0726L3.68448 19.4635C10.1822 21.129 16.0588 18.4228 21.1795 16.0646C21.753 15.8005 22.317 15.5408 22.8714 15.292C28.4432 12.7919 34.8049 12.3552 40.609 13.9822V14.5039C34.8811 12.8634 28.5845 13.2787 23.0772 15.7499C22.5259 15.9973 21.9621 16.2573 21.3863 16.5229C16.417 18.8148 10.5537 21.5191 4.07277 20.0726Z" fill="url(#paint28_linear_150_5601)"/>
<path d="M7.42067 22.1999L4.95101 21.2554C8.59563 22.2232 12.2222 21.7025 15.5614 20.7136C17.336 20.1881 19.024 19.5321 20.5871 18.9005C20.8774 18.7832 21.1637 18.6666 21.4457 18.5518C22.6769 18.0505 23.8243 17.5833 24.8543 17.2403C28.9209 15.886 34.5238 14.2485 40.609 15.9444V16.4661C34.6304 14.7519 29.1031 16.3544 25.0132 17.7165C24.0004 18.0537 22.8725 18.513 21.6423 19.0138L21.6421 19.0139L21.6415 19.0142C21.3582 19.1295 21.0694 19.2471 20.7754 19.3659C19.2094 19.9986 17.503 20.6622 15.7042 21.1949C13.1014 21.9656 10.2939 22.4659 7.42067 22.1999Z" fill="url(#paint29_linear_150_5601)"/>
<path d="M13.9545 24.6987L13.0492 24.3525C17.1979 23.6518 20.5639 22.3229 23.7803 21.053C24.8356 20.6363 25.8749 20.226 26.9203 19.8464C31.0079 18.362 35.1508 17.3669 40.609 18.3753V18.8859C35.2242 17.8713 31.1531 18.8433 27.092 20.3181C26.0689 20.6896 25.0439 21.0944 23.9973 21.5077C20.9844 22.6976 17.7925 23.9581 13.9545 24.6987Z" fill="url(#paint30_linear_150_5601)"/>
<path d="M19.3323 26.7554L18.4861 26.4317C21.8216 25.7184 24.6143 24.5959 27.2736 23.5269C28.1356 23.1804 28.9836 22.8395 29.8315 22.5201C33.1417 21.2729 36.4267 20.3648 40.4574 20.7895L39.777 21.233C36.1397 20.9715 33.108 21.8221 30.0088 22.9897C29.1787 23.3025 28.3422 23.6388 27.4873 23.9825C25.0184 24.9752 22.3962 26.0295 19.3323 26.7554Z" fill="url(#paint31_linear_150_5601)"/>
<path d="M24.0557 28.5618L23.2272 28.2449C26.1177 27.5845 28.956 26.4998 31.6239 25.4802L31.6268 25.4791C32.0352 25.323 32.4395 25.1685 32.8394 25.0173C33.7113 24.6875 34.5626 24.3734 35.3871 24.0942L33.5686 25.2794C33.3861 25.3476 33.2023 25.4167 33.0173 25.4867C32.6187 25.6374 32.2146 25.7919 31.8055 25.9483C29.3599 26.8831 26.7377 27.8855 24.0557 28.5618Z" fill="url(#paint32_linear_150_5601)"/>
<path d="M28.1708 30.1355L27.4034 29.842L30.8832 28.796L30.7912 29.3478L28.1708 30.1355Z" fill="url(#paint33_linear_150_5601)"/>
<path d="M30.601 30.488L30.5105 31.0303L29.7569 30.7421L30.601 30.488Z" fill="url(#paint34_linear_150_5601)"/>
<path d="M7.42751 3.38961L6.19366 3.72579L6.05334 3.93497C8.8501 3.9742 12.3192 3.24236 16.1711 1.00734L13.8978 1.62671C11.522 2.72538 9.33879 3.24335 7.42751 3.38961Z" fill="url(#paint35_linear_150_5601)"/>
</g>
<path d="M62.2133 9.61719V22.2694H59.8094L53.5013 14.5877V22.2694H50.6094V9.61719H53.0314L59.3213 17.2989V9.61719H62.2133Z" fill="white"/>
<path d="M69.9965 22.414C68.9723 22.414 68.0505 22.2032 67.2311 21.7814C66.4238 21.3476 65.7912 20.7512 65.3333 19.992C64.8754 19.2329 64.6464 18.3713 64.6464 17.4074C64.6464 16.4434 64.8754 15.5818 65.3333 14.8227C65.7912 14.0635 66.4238 13.4731 67.2311 13.0514C68.0505 12.6176 68.9723 12.4007 69.9965 12.4007C71.0208 12.4007 71.9366 12.6176 72.7439 13.0514C73.5512 13.4731 74.1838 14.0635 74.6417 14.8227C75.0996 15.5818 75.3286 16.4434 75.3286 17.4074C75.3286 18.3713 75.0996 19.2329 74.6417 19.992C74.1838 20.7512 73.5512 21.3476 72.7439 21.7814C71.9366 22.2032 71.0208 22.414 69.9965 22.414ZM69.9965 20.1005C70.7195 20.1005 71.31 19.8595 71.7679 19.3775C72.2378 18.8835 72.4728 18.2267 72.4728 17.4074C72.4728 16.588 72.2378 15.9373 71.7679 15.4553C71.31 14.9613 70.7195 14.7142 69.9965 14.7142C69.2736 14.7142 68.6771 14.9613 68.2072 15.4553C67.7372 15.9373 67.5022 16.588 67.5022 17.4074C67.5022 18.2267 67.7372 18.8835 68.2072 19.3775C68.6771 19.8595 69.2736 20.1005 69.9965 20.1005Z" fill="white"/>
<path d="M86.9618 12.5453L82.8589 22.2694H79.9489L75.864 12.5453H78.774L81.4672 19.1606L84.2506 12.5453H86.9618Z" fill="white"/>
<path d="M98.2704 12.5453V22.2694H95.5953V21.1127C95.2218 21.5344 94.7759 21.8597 94.2578 22.0887C93.7396 22.3056 93.1793 22.414 92.5768 22.414C91.2996 22.414 90.2874 22.0465 89.5403 21.3115C88.7932 20.5764 88.4197 19.4859 88.4197 18.04V12.5453H91.2393V17.6243C91.2393 19.1907 91.896 19.974 93.2095 19.974C93.8842 19.974 94.4265 19.7571 94.8362 19.3233C95.2459 18.8774 95.4507 18.2207 95.4507 17.3531V12.5453H98.2704Z" fill="white"/>
<path d="M104.516 22.414C103.708 22.414 102.919 22.3176 102.148 22.1248C101.377 21.92 100.762 21.6669 100.304 21.3657L101.244 19.3413C101.678 19.6185 102.202 19.8474 102.817 20.0282C103.431 20.1969 104.034 20.2812 104.624 20.2812C105.817 20.2812 106.413 19.986 106.413 19.3956C106.413 19.1184 106.251 18.9196 105.925 18.7991C105.6 18.6786 105.1 18.5762 104.425 18.4918C103.63 18.3713 102.973 18.2328 102.455 18.0761C101.937 17.9195 101.485 17.6423 101.099 17.2447C100.726 16.847 100.539 16.2807 100.539 15.5457C100.539 14.9311 100.714 14.3889 101.063 13.919C101.425 13.437 101.943 13.0634 102.618 12.7983C103.305 12.5332 104.112 12.4007 105.04 12.4007C105.727 12.4007 106.407 12.479 107.082 12.6357C107.769 12.7802 108.335 12.9851 108.781 13.2502L107.841 15.2565C106.986 14.7745 106.052 14.5335 105.04 14.5335C104.437 14.5335 103.985 14.6178 103.684 14.7865C103.383 14.9552 103.232 15.1721 103.232 15.4372C103.232 15.7385 103.395 15.9493 103.72 16.0698C104.046 16.1903 104.564 16.3048 105.275 16.4133C106.07 16.5458 106.721 16.6904 107.227 16.847C107.733 16.9916 108.173 17.2628 108.546 17.6604C108.92 18.058 109.107 18.6123 109.107 19.3233C109.107 19.9258 108.926 20.462 108.564 20.9319C108.203 21.4018 107.673 21.7694 106.974 22.0345C106.287 22.2875 105.467 22.414 104.516 22.414Z" fill="white"/>
<path d="M123.047 22.1732C121.782 22.1732 120.637 21.896 119.613 21.3417C118.601 20.7754 117.805 20.0042 117.227 19.0282C116.649 18.0401 116.359 16.9315 116.359 15.7024C116.359 14.4734 116.649 13.3708 117.227 12.3948C117.805 11.4067 118.607 10.6355 119.631 10.0812C120.655 9.51489 121.8 9.23173 123.065 9.23173C124.053 9.23173 124.957 9.40042 125.776 9.73782C126.596 10.0632 127.295 10.5512 127.873 11.2019L126.698 12.3406C125.746 11.3404 124.559 10.8404 123.137 10.8404C122.197 10.8404 121.348 11.0512 120.589 11.473C119.83 11.8947 119.233 12.4791 118.799 13.2262C118.378 13.9613 118.167 14.7867 118.167 15.7024C118.167 16.6182 118.378 17.4497 118.799 18.1967C119.233 18.9318 119.83 19.5102 120.589 19.9319C121.348 20.3537 122.197 20.5645 123.137 20.5645C124.547 20.5645 125.734 20.0584 126.698 19.0463L127.873 20.185C127.295 20.8356 126.59 21.3297 125.758 21.6671C124.939 22.0045 124.035 22.1732 123.047 22.1732Z" fill="white"/>
<path d="M138.45 17.293C138.45 17.4256 138.438 17.6003 138.414 17.8172H130.642C130.75 18.6607 131.118 19.3415 131.744 19.8596C132.383 20.3657 133.172 20.6187 134.112 20.6187C135.257 20.6187 136.179 20.2332 136.878 19.462L137.836 20.5826C137.402 21.0887 136.86 21.4743 136.209 21.7394C135.57 22.0045 134.853 22.137 134.058 22.137C133.046 22.137 132.148 21.9322 131.365 21.5225C130.582 21.1007 129.973 20.5163 129.539 19.7692C129.118 19.0222 128.907 18.1787 128.907 17.2388C128.907 16.311 129.112 15.4735 129.521 14.7264C129.943 13.9793 130.515 13.4009 131.238 12.9913C131.973 12.5695 132.799 12.3586 133.715 12.3586C134.63 12.3586 135.444 12.5695 136.155 12.9913C136.878 13.4009 137.438 13.9793 137.836 14.7264C138.245 15.4735 138.45 16.329 138.45 17.293ZM133.715 13.8227C132.883 13.8227 132.184 14.0757 131.618 14.5818C131.064 15.0879 130.738 15.7506 130.642 16.57H136.787C136.691 15.7627 136.359 15.106 135.793 14.5999C135.239 14.0818 134.546 13.8227 133.715 13.8227Z" fill="white"/>
<path d="M142.522 14.0577C142.824 13.5034 143.269 13.0816 143.86 12.7924C144.45 12.5032 145.167 12.3586 146.011 12.3586V14.0396C145.914 14.0275 145.782 14.0215 145.613 14.0215C144.673 14.0215 143.932 14.3047 143.39 14.871C142.86 15.4253 142.595 16.2206 142.595 17.2569V22.0286H140.86V12.449H142.522V14.0577Z" fill="white"/>
<path d="M156.719 17.293C156.719 17.4256 156.707 17.6003 156.683 17.8172H148.911C149.019 18.6607 149.387 19.3415 150.013 19.8596C150.652 20.3657 151.441 20.6187 152.381 20.6187C153.526 20.6187 154.448 20.2332 155.146 19.462L156.104 20.5826C155.671 21.0887 155.128 21.4743 154.478 21.7394C153.839 22.0045 153.122 22.137 152.327 22.137C151.315 22.137 150.417 21.9322 149.634 21.5225C148.85 21.1007 148.242 20.5163 147.808 19.7692C147.386 19.0222 147.175 18.1787 147.175 17.2388C147.175 16.311 147.38 15.4735 147.79 14.7264C148.212 13.9793 148.784 13.4009 149.507 12.9913C150.242 12.5695 151.068 12.3586 151.983 12.3586C152.899 12.3586 153.712 12.5695 154.423 12.9913C155.146 13.4009 155.707 13.9793 156.104 14.7264C156.514 15.4735 156.719 16.329 156.719 17.293ZM151.983 13.8227C151.152 13.8227 150.453 14.0757 149.887 14.5818C149.332 15.0879 149.007 15.7506 148.911 16.57H155.056C154.96 15.7627 154.628 15.106 154.062 14.5999C153.508 14.0818 152.815 13.8227 151.983 13.8227Z" fill="white"/>
<path d="M164.207 12.3586C165.135 12.3586 165.967 12.5635 166.702 12.9732C167.437 13.3829 168.009 13.9552 168.419 14.6903C168.84 15.4253 169.051 16.2748 169.051 17.2388C169.051 18.2028 168.84 19.0583 168.419 19.8054C168.009 20.5404 167.437 21.1128 166.702 21.5225C165.967 21.9322 165.135 22.137 164.207 22.137C163.496 22.137 162.846 21.9984 162.255 21.7213C161.665 21.4442 161.177 21.0405 160.791 20.5103V22.0286H159.128V8.61719H160.864V13.895C161.249 13.3889 161.731 13.0093 162.309 12.7563C162.888 12.4912 163.52 12.3586 164.207 12.3586ZM164.063 20.6187C164.677 20.6187 165.226 20.4802 165.708 20.203C166.202 19.9138 166.587 19.5162 166.864 19.0101C167.153 18.492 167.298 17.9015 167.298 17.2388C167.298 16.5761 167.153 15.9916 166.864 15.4855C166.587 14.9674 166.202 14.5698 165.708 14.2926C165.226 14.0155 164.677 13.8769 164.063 13.8769C163.46 13.8769 162.912 14.0155 162.418 14.2926C161.924 14.5698 161.538 14.9674 161.261 15.4855C160.984 15.9916 160.845 16.5761 160.845 17.2388C160.845 17.9015 160.984 18.492 161.261 19.0101C161.538 19.5162 161.924 19.9138 162.418 20.203C162.912 20.4802 163.46 20.6187 164.063 20.6187Z" fill="white"/>
<path d="M173.112 14.0577C173.413 13.5034 173.859 13.0816 174.449 12.7924C175.04 12.5032 175.757 12.3586 176.6 12.3586V14.0396C176.504 14.0275 176.371 14.0215 176.202 14.0215C175.262 14.0215 174.521 14.3047 173.979 14.871C173.449 15.4253 173.184 16.2206 173.184 17.2569V22.0286H171.449V12.449H173.112V14.0577Z" fill="white"/>
<path d="M187.791 12.449V22.0286H186.146V20.5826C185.797 21.0766 185.333 21.4622 184.755 21.7394C184.188 22.0045 183.568 22.137 182.893 22.137C181.616 22.137 180.609 21.7876 179.874 21.0887C179.139 20.3778 178.772 19.3354 178.772 17.9618V12.449H180.507V17.763C180.507 18.6908 180.73 19.3957 181.176 19.8777C181.622 20.3476 182.26 20.5826 183.092 20.5826C184.007 20.5826 184.73 20.3055 185.261 19.7512C185.791 19.1969 186.056 18.4136 186.056 17.4015V12.449H187.791Z" fill="white"/>
<path d="M203.078 12.3586C204.283 12.3586 205.235 12.7081 205.934 13.407C206.645 14.1059 207 15.1421 207 16.5158V22.0286H205.265V16.7146C205.265 15.7868 205.048 15.0879 204.614 14.618C204.192 14.148 203.584 13.9131 202.789 13.9131C201.909 13.9131 201.21 14.1902 200.692 14.7445C200.174 15.2867 199.915 16.07 199.915 17.0942V22.0286H198.18V16.7146C198.18 15.7868 197.963 15.0879 197.529 14.618C197.107 14.148 196.499 13.9131 195.703 13.9131C194.824 13.9131 194.125 14.1902 193.607 14.7445C193.089 15.2867 192.829 16.07 192.829 17.0942V22.0286H191.094V12.449H192.757V13.8769C193.107 13.3829 193.565 13.0093 194.131 12.7563C194.697 12.4912 195.342 12.3586 196.065 12.3586C196.812 12.3586 197.475 12.5093 198.053 12.8105C198.631 13.1117 199.077 13.5516 199.391 14.13C199.752 13.5757 200.252 13.1419 200.891 12.8286C201.541 12.5153 202.27 12.3586 203.078 12.3586Z" fill="white"/>
<defs>
<radialGradient id="paint0_radial_150_5601" cx="0" cy="0" r="1" gradientUnits="userSpaceOnUse" gradientTransform="translate(8.10285 14.4669) rotate(4.9344) scale(32.6775 42.6815)">
<stop stop-color="#60FEEB"/>
<stop offset="0.388124" stop-color="#66D5FF"/>
<stop offset="1" stop-color="#FF6767"/>
</radialGradient>
<radialGradient id="paint1_radial_150_5601" cx="0" cy="0" r="1" gradientUnits="userSpaceOnUse" gradientTransform="translate(8.10285 14.4669) rotate(4.9344) scale(32.6775 42.6815)">
<stop stop-color="#60FEEB"/>
<stop offset="0.388124" stop-color="#66D5FF"/>
<stop offset="1" stop-color="#FF6767"/>
</radialGradient>
<radialGradient id="paint2_radial_150_5601" cx="0" cy="0" r="1" gradientUnits="userSpaceOnUse" gradientTransform="translate(8.10285 14.4669) rotate(4.9344) scale(32.6775 42.6815)">
<stop stop-color="#60FEEB"/>
<stop offset="0.388124" stop-color="#66D5FF"/>
<stop offset="1" stop-color="#FF6767"/>
</radialGradient>
<radialGradient id="paint3_radial_150_5601" cx="0" cy="0" r="1" gradientUnits="userSpaceOnUse" gradientTransform="translate(8.10285 14.4669) rotate(4.9344) scale(32.6775 42.6815)">
<stop stop-color="#60FEEB"/>
<stop offset="0.388124" stop-color="#66D5FF"/>
<stop offset="1" stop-color="#FF6767"/>
</radialGradient>
<radialGradient id="paint4_radial_150_5601" cx="0" cy="0" r="1" gradientUnits="userSpaceOnUse" gradientTransform="translate(8.10285 14.4669) rotate(4.9344) scale(32.6775 42.6815)">
<stop stop-color="#60FEEB"/>
<stop offset="0.388124" stop-color="#66D5FF"/>
<stop offset="1" stop-color="#FF6767"/>
</radialGradient>
<radialGradient id="paint5_radial_150_5601" cx="0" cy="0" r="1" gradientUnits="userSpaceOnUse" gradientTransform="translate(8.10285 14.4669) rotate(4.9344) scale(32.6775 42.6815)">
<stop stop-color="#60FEEB"/>
<stop offset="0.388124" stop-color="#66D5FF"/>
<stop offset="1" stop-color="#FF6767"/>
</radialGradient>
<radialGradient id="paint6_radial_150_5601" cx="0" cy="0" r="1" gradientUnits="userSpaceOnUse" gradientTransform="translate(8.10285 14.4669) rotate(4.9344) scale(32.6775 42.6815)">
<stop stop-color="#60FEEB"/>
<stop offset="0.388124" stop-color="#66D5FF"/>
<stop offset="1" stop-color="#FF6767"/>
</radialGradient>
<radialGradient id="paint7_radial_150_5601" cx="0" cy="0" r="1" gradientUnits="userSpaceOnUse" gradientTransform="translate(8.10285 14.4669) rotate(4.9344) scale(32.6775 42.6815)">
<stop stop-color="#60FEEB"/>
<stop offset="0.388124" stop-color="#66D5FF"/>
<stop offset="1" stop-color="#FF6767"/>
</radialGradient>
<radialGradient id="paint8_radial_150_5601" cx="0" cy="0" r="1" gradientUnits="userSpaceOnUse" gradientTransform="translate(8.10285 14.4669) rotate(4.9344) scale(32.6775 42.6815)">
<stop stop-color="#60FEEB"/>
<stop offset="0.388124" stop-color="#66D5FF"/>
<stop offset="1" stop-color="#FF6767"/>
</radialGradient>
<radialGradient id="paint9_radial_150_5601" cx="0" cy="0" r="1" gradientUnits="userSpaceOnUse" gradientTransform="translate(8.10285 14.4669) rotate(4.9344) scale(32.6775 42.6815)">
<stop stop-color="#60FEEB"/>
<stop offset="0.388124" stop-color="#66D5FF"/>
<stop offset="1" stop-color="#FF6767"/>
</radialGradient>
<radialGradient id="paint10_radial_150_5601" cx="0" cy="0" r="1" gradientUnits="userSpaceOnUse" gradientTransform="translate(8.10285 14.4669) rotate(4.9344) scale(32.6775 42.6815)">
<stop stop-color="#60FEEB"/>
<stop offset="0.388124" stop-color="#66D5FF"/>
<stop offset="1" stop-color="#FF6767"/>
</radialGradient>
<radialGradient id="paint11_radial_150_5601" cx="0" cy="0" r="1" gradientUnits="userSpaceOnUse" gradientTransform="translate(8.10285 14.4669) rotate(4.9344) scale(32.6775 42.6815)">
<stop stop-color="#60FEEB"/>
<stop offset="0.388124" stop-color="#66D5FF"/>
<stop offset="1" stop-color="#FF6767"/>
</radialGradient>
<radialGradient id="paint12_radial_150_5601" cx="0" cy="0" r="1" gradientUnits="userSpaceOnUse" gradientTransform="translate(8.10285 14.4669) rotate(4.9344) scale(32.6775 42.6815)">
<stop stop-color="#60FEEB"/>
<stop offset="0.388124" stop-color="#66D5FF"/>
<stop offset="1" stop-color="#FF6767"/>
</radialGradient>
<radialGradient id="paint13_radial_150_5601" cx="0" cy="0" r="1" gradientUnits="userSpaceOnUse" gradientTransform="translate(8.10285 14.4669) rotate(4.9344) scale(32.6775 42.6815)">
<stop stop-color="#60FEEB"/>
<stop offset="0.388124" stop-color="#66D5FF"/>
<stop offset="1" stop-color="#FF6767"/>
</radialGradient>
<radialGradient id="paint14_radial_150_5601" cx="0" cy="0" r="1" gradientUnits="userSpaceOnUse" gradientTransform="translate(8.10285 14.4669) rotate(4.9344) scale(32.6775 42.6815)">
<stop stop-color="#60FEEB"/>
<stop offset="0.388124" stop-color="#66D5FF"/>
<stop offset="1" stop-color="#FF6767"/>
</radialGradient>
<radialGradient id="paint15_radial_150_5601" cx="0" cy="0" r="1" gradientUnits="userSpaceOnUse" gradientTransform="translate(8.10285 14.4669) rotate(4.9344) scale(32.6775 42.6815)">
<stop stop-color="#60FEEB"/>
<stop offset="0.388124" stop-color="#66D5FF"/>
<stop offset="1" stop-color="#FF6767"/>
</radialGradient>
<radialGradient id="paint16_radial_150_5601" cx="0" cy="0" r="1" gradientUnits="userSpaceOnUse" gradientTransform="translate(8.10285 14.4669) rotate(4.9344) scale(32.6775 42.6815)">
<stop stop-color="#60FEEB"/>
<stop offset="0.388124" stop-color="#66D5FF"/>
<stop offset="1" stop-color="#FF6767"/>
</radialGradient>
<radialGradient id="paint17_radial_150_5601" cx="0" cy="0" r="1" gradientUnits="userSpaceOnUse" gradientTransform="translate(8.10285 14.4669) rotate(4.9344) scale(32.6775 42.6815)">
<stop stop-color="#60FEEB"/>
<stop offset="0.388124" stop-color="#66D5FF"/>
<stop offset="1" stop-color="#FF6767"/>
</radialGradient>
<linearGradient id="paint18_linear_150_5601" x1="32.2187" y1="1.01541" x2="30.0124" y2="31.5325" gradientUnits="userSpaceOnUse">
<stop stop-color="#646EE8"/>
<stop offset="1" stop-color="#FF6565" stop-opacity="0.25"/>
</linearGradient>
<linearGradient id="paint19_linear_150_5601" x1="32.2187" y1="1.01541" x2="30.0124" y2="31.5325" gradientUnits="userSpaceOnUse">
<stop stop-color="#646EE8"/>
<stop offset="1" stop-color="#FF6565" stop-opacity="0.25"/>
</linearGradient>
<linearGradient id="paint20_linear_150_5601" x1="32.2187" y1="1.01541" x2="30.0124" y2="31.5325" gradientUnits="userSpaceOnUse">
<stop stop-color="#646EE8"/>
<stop offset="1" stop-color="#FF6565" stop-opacity="0.25"/>
</linearGradient>
<linearGradient id="paint21_linear_150_5601" x1="32.2187" y1="1.01541" x2="30.0124" y2="31.5325" gradientUnits="userSpaceOnUse">
<stop stop-color="#646EE8"/>
<stop offset="1" stop-color="#FF6565" stop-opacity="0.25"/>
</linearGradient>
<linearGradient id="paint22_linear_150_5601" x1="32.2187" y1="1.01541" x2="30.0124" y2="31.5325" gradientUnits="userSpaceOnUse">
<stop stop-color="#646EE8"/>
<stop offset="1" stop-color="#FF6565" stop-opacity="0.25"/>
</linearGradient>
<linearGradient id="paint23_linear_150_5601" x1="32.2187" y1="1.01541" x2="30.0124" y2="31.5325" gradientUnits="userSpaceOnUse">
<stop stop-color="#646EE8"/>
<stop offset="1" stop-color="#FF6565" stop-opacity="0.25"/>
</linearGradient>
<linearGradient id="paint24_linear_150_5601" x1="32.2187" y1="1.01541" x2="30.0124" y2="31.5325" gradientUnits="userSpaceOnUse">
<stop stop-color="#646EE8"/>
<stop offset="1" stop-color="#FF6565" stop-opacity="0.25"/>
</linearGradient>
<linearGradient id="paint25_linear_150_5601" x1="32.2187" y1="1.01541" x2="30.0124" y2="31.5325" gradientUnits="userSpaceOnUse">
<stop stop-color="#646EE8"/>
<stop offset="1" stop-color="#FF6565" stop-opacity="0.25"/>
</linearGradient>
<linearGradient id="paint26_linear_150_5601" x1="32.2187" y1="1.01541" x2="30.0124" y2="31.5325" gradientUnits="userSpaceOnUse">
<stop stop-color="#646EE8"/>
<stop offset="1" stop-color="#FF6565" stop-opacity="0.25"/>
</linearGradient>
<linearGradient id="paint27_linear_150_5601" x1="32.2187" y1="1.01541" x2="30.0124" y2="31.5325" gradientUnits="userSpaceOnUse">
<stop stop-color="#646EE8"/>
<stop offset="1" stop-color="#FF6565" stop-opacity="0.25"/>
</linearGradient>
<linearGradient id="paint28_linear_150_5601" x1="32.2187" y1="1.01541" x2="30.0124" y2="31.5325" gradientUnits="userSpaceOnUse">
<stop stop-color="#646EE8"/>
<stop offset="1" stop-color="#FF6565" stop-opacity="0.25"/>
</linearGradient>
<linearGradient id="paint29_linear_150_5601" x1="32.2187" y1="1.01541" x2="30.0124" y2="31.5325" gradientUnits="userSpaceOnUse">
<stop stop-color="#646EE8"/>
<stop offset="1" stop-color="#FF6565" stop-opacity="0.25"/>
</linearGradient>
<linearGradient id="paint30_linear_150_5601" x1="32.2187" y1="1.01541" x2="30.0124" y2="31.5325" gradientUnits="userSpaceOnUse">
<stop stop-color="#646EE8"/>
<stop offset="1" stop-color="#FF6565" stop-opacity="0.25"/>
</linearGradient>
<linearGradient id="paint31_linear_150_5601" x1="32.2187" y1="1.01541" x2="30.0124" y2="31.5325" gradientUnits="userSpaceOnUse">
<stop stop-color="#646EE8"/>
<stop offset="1" stop-color="#FF6565" stop-opacity="0.25"/>
</linearGradient>
<linearGradient id="paint32_linear_150_5601" x1="32.2187" y1="1.01541" x2="30.0124" y2="31.5325" gradientUnits="userSpaceOnUse">
<stop stop-color="#646EE8"/>
<stop offset="1" stop-color="#FF6565" stop-opacity="0.25"/>
</linearGradient>
<linearGradient id="paint33_linear_150_5601" x1="32.2187" y1="1.01541" x2="30.0124" y2="31.5325" gradientUnits="userSpaceOnUse">
<stop stop-color="#646EE8"/>
<stop offset="1" stop-color="#FF6565" stop-opacity="0.25"/>
</linearGradient>
<linearGradient id="paint34_linear_150_5601" x1="32.2187" y1="1.01541" x2="30.0124" y2="31.5325" gradientUnits="userSpaceOnUse">
<stop stop-color="#646EE8"/>
<stop offset="1" stop-color="#FF6565" stop-opacity="0.25"/>
</linearGradient>
<linearGradient id="paint35_linear_150_5601" x1="32.2187" y1="1.01541" x2="30.0124" y2="31.5325" gradientUnits="userSpaceOnUse">
<stop stop-color="#646EE8"/>
<stop offset="1" stop-color="#FF6565" stop-opacity="0.25"/>
</linearGradient>
</defs>
</svg>
